<svg width="187" height="198" viewBox="0 0 187 198" fill="none" xmlns="http://www.w3.org/2000/svg">
<circle cx="53.4754" cy="70.8527" r="13.4509" transform="rotate(-90 53.4754 70.8527)" fill="#674A7E" fill-opacity="0.8"/>
<circle cx="13.4509" cy="70.8527" r="13.4509" transform="rotate(-90 13.4509 70.8527)" fill="#674A7E" fill-opacity="0.8"/>
<circle cx="133.525" cy="70.8527" r="13.4509" transform="rotate(-90 133.525 70.8527)" fill="#674A7E" fill-opacity="0.8"/>
<circle cx="93.5" cy="70.8527" r="13.4509" transform="rotate(-90 93.5 70.8527)" fill="#674A7E" fill-opacity="0.8"/>
<circle cx="173.549" cy="70.8527" r="13.4509" transform="rotate(-90 173.549 70.8527)" fill="#674A7E" fill-opacity="0.8"/>
<circle cx="34" cy="37.4018" r="11" transform="rotate(-90 34 37.4018)" fill="#674A7E" fill-opacity="0.6"/>
<circle cx="114.049" cy="37.4018" r="11" transform="rotate(-90 114.049 37.4018)" fill="#674A7E" fill-opacity="0.6"/>
<circle cx="74.0245" cy="37.4018" r="11" transform="rotate(-90 74.0245 37.4018)" fill="#674A7E" fill-opacity="0.6"/>
<circle cx="154.074" cy="37.4018" r="11" transform="rotate(-90 154.074 37.4018)" fill="#674A7E" fill-opacity="0.6"/>
<circle cx="93.9264" cy="8.50002" r="8.5" transform="rotate(-90 93.9264 8.50002)" fill="#674A7E" fill-opacity="0.4"/>
<circle cx="53.9019" cy="8.5" r="8.5" transform="rotate(-90 53.9019 8.5)" fill="#674A7E" fill-opacity="0.4"/>
<circle cx="133.951" cy="8.50002" r="8.5" transform="rotate(-90 133.951 8.50002)" fill="#674A7E" fill-opacity="0.4"/>
<circle r="13.4509" transform="matrix(4.37114e-08 1 1 -4.37114e-08 53.4754 105.853)" fill="#0D3951"/>
<circle r="13.4509" transform="matrix(4.37114e-08 1 1 -4.37114e-08 13.4509 105.853)" fill="#0D3951"/>
<circle r="13.4509" transform="matrix(4.37114e-08 1 1 -4.37114e-08 133.525 105.853)" fill="#0D3951"/>
<circle r="13.4509" transform="matrix(4.37114e-08 1 1 -4.37114e-08 93.5 105.853)" fill="#0D3951"/>
<circle r="13.4509" transform="matrix(4.37114e-08 1 1 -4.37114e-08 173.549 105.853)" fill="#0D3951"/>
<circle r="11" transform="matrix(4.37114e-08 1 1 -4.37114e-08 34 139.402)" fill="#113D54"/>
<circle r="11" transform="matrix(4.37114e-08 1 1 -4.37114e-08 114.049 139.402)" fill="#113D54"/>
<circle r="11" transform="matrix(4.37114e-08 1 1 -4.37114e-08 74.0245 139.402)" fill="#113D54"/>
<circle r="11" transform="matrix(4.37114e-08 1 1 -4.37114e-08 154.074 139.402)" fill="#113D54"/>
<circle r="8.5" transform="matrix(4.37114e-08 1 1 -4.37114e-08 93.5245 167.902)" fill="#174F6C"/>
<circle r="8.5" transform="matrix(4.37114e-08 1 1 -4.37114e-08 53.5 167.902)" fill="#174F6C"/>
<circle r="8.5" transform="matrix(4.37114e-08 1 1 -4.37114e-08 133.549 167.902)" fill="#174F6C"/>
<circle cx="74" cy="191.402" r="6" transform="rotate(-90 74 191.402)" fill="#00FFA4"/>
<circle cx="114.025" cy="191.402" r="6" transform="rotate(-90 114.025 191.402)" fill="#00FFA4"/>
</svg>
