<svg width="49" height="49" viewBox="0 0 49 49" fill="none" xmlns="http://www.w3.org/2000/svg">
<path d="M24.5 0C10.9719 0 0 11.2472 0 25.1194C0 36.2179 7.01925 45.6335 16.756 48.9556C17.9789 49.1879 18.375 48.4092 18.375 47.7477V43.0714C11.5599 44.5911 10.141 40.1073 10.141 40.1073C9.02621 37.2039 7.41942 36.4315 7.41942 36.4315C5.19604 34.872 7.58888 34.9055 7.58888 34.9055C10.0491 35.0813 11.3435 37.4949 11.3435 37.4949C13.5281 41.3339 17.0745 40.2245 18.473 39.5818C18.6915 37.9596 19.3264 36.8501 20.0288 36.2242C14.5877 35.5858 8.86696 33.4318 8.86696 23.809C8.86696 21.0647 9.8245 18.8249 11.3905 17.0665C11.1373 16.4323 10.2982 13.8764 11.6293 10.4183C11.6293 10.4183 13.6873 9.74422 18.3689 12.993C20.3228 12.4362 22.4175 12.1578 24.5 12.1473C26.5825 12.1578 28.6793 12.4362 30.6373 12.993C35.3147 9.74422 37.3686 10.4183 37.3686 10.4183C38.7018 13.8785 37.8627 16.4343 37.6095 17.0665C39.1816 18.8249 40.131 21.0668 40.131 23.809C40.131 33.4569 34.4 35.5816 28.9447 36.2033C29.8226 36.982 30.625 38.5101 30.625 40.8546V47.7477C30.625 48.4155 31.017 49.2005 32.2604 48.9535C41.9889 45.6272 49 36.2138 49 25.1194C49 11.2472 38.0301 0 24.5 0Z" fill="#03A576"/>
</svg>
