<svg width="49" height="49" viewBox="0 0 49 49" fill="none" xmlns="http://www.w3.org/2000/svg">
<circle cx="24.5" cy="24.5" r="20.25" stroke="#03A576" stroke-width="8.5"/>
<path d="M16.888 19.384C15.96 19.384 15.216 19.136 14.656 18.64C14.096 18.144 13.816 17.52 13.816 16.768C13.816 16 14.096 15.368 14.656 14.872C15.216 14.36 15.96 14.104 16.888 14.104C17.8 14.104 18.536 14.36 19.096 14.872C19.656 15.368 19.936 16 19.936 16.768C19.936 17.52 19.656 18.144 19.096 18.64C18.536 19.136 17.8 19.384 16.888 19.384ZM19.528 20.464V34H14.2V20.464H19.528ZM31.0544 20.368C32.6064 20.368 33.8144 20.888 34.6784 21.928C35.5584 22.968 35.9984 24.376 35.9984 26.152V34H30.6944V26.824C30.6944 26.184 30.5184 25.68 30.1664 25.312C29.8304 24.928 29.3744 24.736 28.7984 24.736C28.2064 24.736 27.7424 24.928 27.4064 25.312C27.0704 25.68 26.9024 26.184 26.9024 26.824V34H21.5744V20.464H26.9024V22.528C27.3184 21.888 27.8704 21.368 28.5584 20.968C29.2624 20.568 30.0944 20.368 31.0544 20.368Z" fill="#03A576"/>
</svg>
