<svg width="153" height="49" viewBox="0 0 153 49" fill="none" xmlns="http://www.w3.org/2000/svg">
<rect x="3" y="3" width="147" height="43" rx="11" stroke="#03A576" stroke-width="6"/>
<path d="M22.08 35L17.28 26.66H14.67V35H11.25V14.15H18.45C20.05 14.15 21.4 14.43 22.5 14.99C23.62 15.55 24.45 16.3 24.99 17.24C25.55 18.18 25.83 19.23 25.83 20.39C25.83 21.75 25.43 22.99 24.63 24.11C23.85 25.21 22.64 25.96 21 26.36L26.16 35H22.08ZM14.67 23.93H18.45C19.73 23.93 20.69 23.61 21.33 22.97C21.99 22.33 22.32 21.47 22.32 20.39C22.32 19.31 22 18.47 21.36 17.87C20.72 17.25 19.75 16.94 18.45 16.94H14.67V23.93ZM44.0051 26.33C44.0051 26.95 43.9651 27.51 43.8851 28.01H31.2551C31.3551 29.33 31.8451 30.39 32.7251 31.19C33.6051 31.99 34.6851 32.39 35.9651 32.39C37.8051 32.39 39.1051 31.62 39.8651 30.08H43.5551C43.0551 31.6 42.1451 32.85 40.8251 33.83C39.5251 34.79 37.9051 35.27 35.9651 35.27C34.3851 35.27 32.9651 34.92 31.7051 34.22C30.4651 33.5 29.4851 32.5 28.7651 31.22C28.0651 29.92 27.7151 28.42 27.7151 26.72C27.7151 25.02 28.0551 23.53 28.7351 22.25C29.4351 20.95 30.4051 19.95 31.6451 19.25C32.9051 18.55 34.3451 18.2 35.9651 18.2C37.5251 18.2 38.9151 18.54 40.1351 19.22C41.3551 19.9 42.3051 20.86 42.9851 22.1C43.6651 23.32 44.0051 24.73 44.0051 26.33ZM40.4351 25.25C40.4151 23.99 39.9651 22.98 39.0851 22.22C38.2051 21.46 37.1151 21.08 35.8151 21.08C34.6351 21.08 33.6251 21.46 32.7851 22.22C31.9451 22.96 31.4451 23.97 31.2851 25.25H40.4351ZM52.0207 35.27C50.7207 35.27 49.5507 35.04 48.5107 34.58C47.4907 34.1 46.6807 33.46 46.0807 32.66C45.4807 31.84 45.1607 30.93 45.1207 29.93H48.6607C48.7207 30.63 49.0507 31.22 49.6507 31.7C50.2707 32.16 51.0407 32.39 51.9607 32.39C52.9207 32.39 53.6607 32.21 54.1807 31.85C54.7207 31.47 54.9907 30.99 54.9907 30.41C54.9907 29.79 54.6907 29.33 54.0907 29.03C53.5107 28.73 52.5807 28.4 51.3007 28.04C50.0607 27.7 49.0507 27.37 48.2707 27.05C47.4907 26.73 46.8107 26.24 46.2307 25.58C45.6707 24.92 45.3907 24.05 45.3907 22.97C45.3907 22.09 45.6507 21.29 46.1707 20.57C46.6907 19.83 47.4307 19.25 48.3907 18.83C49.3707 18.41 50.4907 18.2 51.7507 18.2C53.6307 18.2 55.1407 18.68 56.2807 19.64C57.4407 20.58 58.0607 21.87 58.1407 23.51H54.7207C54.6607 22.77 54.3607 22.18 53.8207 21.74C53.2807 21.3 52.5507 21.08 51.6307 21.08C50.7307 21.08 50.0407 21.25 49.5607 21.59C49.0807 21.93 48.8407 22.38 48.8407 22.94C48.8407 23.38 49.0007 23.75 49.3207 24.05C49.6407 24.35 50.0307 24.59 50.4907 24.77C50.9507 24.93 51.6307 25.14 52.5307 25.4C53.7307 25.72 54.7107 26.05 55.4707 26.39C56.2507 26.71 56.9207 27.19 57.4807 27.83C58.0407 28.47 58.3307 29.32 58.3507 30.38C58.3507 31.32 58.0907 32.16 57.5707 32.9C57.0507 33.64 56.3107 34.22 55.3507 34.64C54.4107 35.06 53.3007 35.27 52.0207 35.27ZM75.6661 18.47V35H72.2461V33.05C71.7061 33.73 70.9961 34.27 70.1161 34.67C69.2561 35.05 68.3361 35.24 67.3561 35.24C66.0561 35.24 64.8861 34.97 63.8461 34.43C62.8261 33.89 62.0161 33.09 61.4161 32.03C60.8361 30.97 60.5461 29.69 60.5461 28.19V18.47H63.9361V27.68C63.9361 29.16 64.3061 30.3 65.0461 31.1C65.7861 31.88 66.7961 32.27 68.0761 32.27C69.3561 32.27 70.3661 31.88 71.1061 31.1C71.8661 30.3 72.2461 29.16 72.2461 27.68V18.47H75.6661ZM98.8385 18.2C100.139 18.2 101.299 18.47 102.319 19.01C103.359 19.55 104.169 20.35 104.749 21.41C105.349 22.47 105.649 23.75 105.649 25.25V35H102.259V25.76C102.259 24.28 101.889 23.15 101.149 22.37C100.409 21.57 99.3985 21.17 98.1185 21.17C96.8385 21.17 95.8185 21.57 95.0585 22.37C94.3185 23.15 93.9485 24.28 93.9485 25.76V35H90.5585V25.76C90.5585 24.28 90.1885 23.15 89.4485 22.37C88.7085 21.57 87.6985 21.17 86.4185 21.17C85.1385 21.17 84.1185 21.57 83.3585 22.37C82.6185 23.15 82.2485 24.28 82.2485 25.76V35H78.8285V18.47H82.2485V20.36C82.8085 19.68 83.5185 19.15 84.3785 18.77C85.2385 18.39 86.1585 18.2 87.1385 18.2C88.4585 18.2 89.6385 18.48 90.6785 19.04C91.7185 19.6 92.5185 20.41 93.0785 21.47C93.5785 20.47 94.3585 19.68 95.4185 19.1C96.4785 18.5 97.6185 18.2 98.8385 18.2ZM123.8 26.33C123.8 26.95 123.76 27.51 123.68 28.01H111.05C111.15 29.33 111.64 30.39 112.52 31.19C113.4 31.99 114.48 32.39 115.76 32.39C117.6 32.39 118.9 31.62 119.66 30.08H123.35C122.85 31.6 121.94 32.85 120.62 33.83C119.32 34.79 117.7 35.27 115.76 35.27C114.18 35.27 112.76 34.92 111.5 34.22C110.26 33.5 109.28 32.5 108.56 31.22C107.86 29.92 107.51 28.42 107.51 26.72C107.51 25.02 107.85 23.53 108.53 22.25C109.23 20.95 110.2 19.95 111.44 19.25C112.7 18.55 114.14 18.2 115.76 18.2C117.32 18.2 118.71 18.54 119.93 19.22C121.15 19.9 122.1 20.86 122.78 22.1C123.46 23.32 123.8 24.73 123.8 26.33ZM120.23 25.25C120.21 23.99 119.76 22.98 118.88 22.22C118 21.46 116.91 21.08 115.61 21.08C114.43 21.08 113.42 21.46 112.58 22.22C111.74 22.96 111.24 23.97 111.08 25.25H120.23Z" fill="#03A576"/>
<path d="M145 22.4706H139.286V14H130.714V22.4706H125L135 32.3529L145 22.4706ZM125 35.1765V38H145V35.1765H125Z" fill="#03A576"/>
</svg>
